{"glyphs":{"0":{"ha":828,"x_min":136,"x_max":897,"o":"m 410 -25 q 201 76 274 -25 q 136 321 136 168 q 271 761 136 558 q 625 983 418 983 q 833 881 761 983 q 897 633 897 789 q 764 196 897 397 q 410 -25 618 -25 m 444 138 q 617 311 540 138 q 688 636 688 471 q 664 771 688 721 q 590 821 640 821 q 418 647 496 821 q 346 321 346 486 q 369 187 346 236 q 444 138 393 138 z "},"1":{"ha":828,"x_min":343,"x_max":840,"o":"m 629 0 l 435 0 l 579 674 l 343 674 l 372 810 q 556 838 494 810 q 681 985 639 875 l 840 985 l 629 0 z "},"2":{"ha":828,"x_min":64,"x_max":917,"o":"m 910 685 q 772 453 879 540 q 554 325 726 415 q 343 168 411 250 l 790 168 l 754 0 l 64 0 q 253 301 97 175 q 535 481 264 311 q 708 674 688 576 q 711 707 711 685 q 677 791 711 758 q 593 824 643 824 q 485 781 533 824 q 397 633 428 731 l 215 633 q 385 903 260 807 q 633 988 496 988 q 835 923 753 988 q 917 746 917 858 q 916 725 917 735 q 910 685 915 715 z "},"3":{"ha":828,"x_min":115,"x_max":894,"o":"m 829 290 q 664 51 797 143 q 397 -32 542 -32 q 200 28 275 -32 q 115 218 115 94 q 117 257 115 243 q 125 300 118 271 l 314 300 q 310 276 311 290 q 308 253 308 263 q 344 163 308 194 q 433 132 381 132 q 550 169 499 132 q 622 282 607 211 q 626 322 626 306 q 565 413 626 386 q 435 432 519 432 l 464 568 q 599 593 546 568 q 683 701 667 626 q 686 731 686 711 q 656 802 686 775 q 581 829 626 829 q 483 792 528 829 q 411 669 432 749 l 224 669 q 378 910 257 824 q 622 986 486 986 q 815 928 736 986 q 894 772 894 871 q 894 751 894 763 q 889 719 893 740 q 831 606 875 657 q 726 522 792 560 q 808 449 781 492 q 835 346 835 406 q 829 290 835 317 z "},"4":{"ha":828,"x_min":99,"x_max":864,"o":"m 821 213 l 706 213 l 660 0 l 469 0 l 515 213 l 99 213 l 135 385 l 621 958 l 864 958 l 739 369 l 854 369 l 821 213 m 551 364 l 642 786 l 282 364 l 551 364 z "},"5":{"ha":828,"x_min":113,"x_max":928,"o":"m 836 319 q 663 60 801 158 q 388 -29 536 -29 q 194 31 269 -29 q 113 211 113 96 q 117 264 113 236 l 310 264 q 308 246 308 256 q 307 232 307 236 q 342 157 307 185 q 428 129 376 129 q 549 172 493 129 q 631 308 613 222 q 636 354 636 331 q 598 451 636 414 q 506 488 560 488 q 431 472 467 488 q 363 419 396 456 l 186 428 l 363 958 l 928 958 l 893 790 l 465 790 l 399 593 q 484 634 439 619 q 571 649 529 649 q 763 571 682 649 q 843 381 843 493 q 842 360 843 369 q 836 319 842 350 z "},"6":{"ha":828,"x_min":135,"x_max":904,"o":"m 901 733 l 701 733 q 674 802 701 776 q 606 828 647 828 q 482 769 539 828 q 386 571 414 700 q 588 638 479 638 q 785 564 715 638 q 847 390 847 497 q 732 110 847 235 q 415 -29 604 -29 q 196 63 267 -29 q 135 283 135 142 q 154 456 135 365 q 365 865 211 722 q 656 988 497 988 q 833 928 761 988 q 904 772 904 869 q 904 753 904 763 q 901 733 901 739 m 456 128 q 592 197 538 128 q 647 346 647 265 q 617 439 647 403 q 519 479 582 479 q 379 410 435 479 q 329 267 329 347 q 361 167 329 207 q 456 128 393 128 z "},"7":{"ha":828,"x_min":206,"x_max":967,"o":"m 935 808 q 615 435 739 626 q 410 0 492 244 l 206 0 q 404 422 279 236 q 717 789 511 583 l 233 789 l 269 958 l 967 958 l 935 808 z "},"8":{"ha":828,"x_min":110,"x_max":901,"o":"m 735 517 q 811 438 786 485 q 836 338 836 392 q 715 90 836 203 q 410 -29 588 -29 q 182 44 263 -29 q 110 215 110 111 q 164 388 110 304 q 314 517 218 472 q 252 590 272 549 q 232 675 232 631 q 349 890 232 793 q 625 986 467 986 q 826 921 751 986 q 901 761 901 856 q 861 630 901 693 q 735 517 821 567 m 540 590 q 660 634 614 590 q 707 731 707 678 q 678 800 707 772 q 590 828 649 828 q 470 784 517 828 q 424 685 424 740 q 453 617 424 644 q 540 590 482 590 m 443 135 q 579 193 526 135 q 628 315 628 246 q 599 400 628 368 q 504 436 565 436 q 372 377 425 436 q 318 249 318 318 q 349 167 318 200 q 443 135 381 135 z "},"9":{"ha":828,"x_min":131,"x_max":896,"o":"m 875 493 q 671 90 819 232 q 390 -33 542 -33 q 205 36 279 -33 q 131 224 131 106 l 331 224 q 356 155 326 183 q 432 126 386 126 q 550 182 497 126 q 646 385 615 250 q 549 335 610 356 q 442 315 489 315 q 249 389 315 315 q 188 565 188 456 q 301 846 188 721 q 619 985 428 985 q 836 894 768 985 q 896 675 896 817 q 890 587 896 632 q 875 493 885 542 m 517 476 q 654 543 601 476 q 701 682 701 603 q 671 785 701 744 q 579 826 640 826 q 447 756 501 826 q 392 604 392 685 q 422 512 392 547 q 517 476 453 476 z "}," ":{"ha":375,"x_min":0,"x_max":0,"o":""},"!":{"ha":307,"x_min":3,"x_max":426,"o":"m 368 739 q 299 515 354 676 q 217 282 257 399 l 114 282 q 139 585 129 474 q 158 739 149 696 l 217 1013 l 426 1013 l 368 739 m 207 0 l 3 0 l 46 203 l 250 203 l 207 0 z "},"\"":{"ha":454,"x_min":129,"x_max":568,"o":"m 486 604 l 354 604 l 436 988 l 568 988 l 486 604 m 261 604 l 129 604 l 211 988 l 343 988 l 261 604 z "},"#":{"ha":1117,"x_min":60,"x_max":1174,"o":"m 1174 722 l 1094 582 l 901 582 l 807 418 l 1008 418 l 928 279 l 728 279 l 565 -6 l 413 -6 l 576 279 l 408 279 l 246 -6 l 93 -6 l 256 279 l 60 279 l 139 418 l 335 418 l 429 582 l 224 582 l 304 722 l 508 722 l 671 1006 l 822 1006 l 661 722 l 828 722 l 992 1006 l 1143 1006 l 981 722 l 1174 722 m 753 582 l 579 582 l 483 417 l 657 417 l 753 582 z "},"$":{"ha":800,"x_min":56,"x_max":835,"o":"m 831 692 l 643 692 q 646 724 646 714 q 628 795 646 767 q 569 829 611 824 l 515 578 q 712 487 650 540 q 774 349 774 433 q 768 294 774 317 q 760 258 763 271 q 624 56 725 135 q 388 -22 522 -22 l 358 -156 l 275 -156 l 304 -22 q 116 47 176 -10 q 56 211 56 103 q 64 300 56 251 l 247 300 q 245 276 246 286 q 244 258 244 265 q 265 174 244 207 q 336 128 286 140 l 397 414 q 154 628 154 444 q 163 700 154 660 q 279 900 190 825 q 518 981 375 981 l 538 1069 l 621 1069 l 601 981 q 775 919 715 981 q 835 747 835 858 q 831 692 835 721 m 436 599 l 486 831 q 397 797 432 831 q 353 713 363 764 q 350 686 350 693 q 436 599 350 628 m 419 128 q 514 173 481 140 q 560 258 547 206 q 563 289 563 269 q 475 388 563 360 l 419 128 z "},"%":{"ha":1213,"x_min":150,"x_max":1168,"o":"m 965 485 q 1119 426 1065 485 q 1168 289 1168 374 q 1083 76 1168 172 q 854 -29 990 -29 q 700 29 754 -29 q 651 168 651 82 q 735 381 651 286 q 965 485 826 485 m 886 119 q 981 160 944 119 q 1018 251 1018 201 q 999 308 1018 288 q 932 333 975 333 q 837 292 874 333 q 800 201 800 251 q 822 142 800 165 q 886 119 843 119 m 1115 985 l 311 -28 l 200 -28 l 1004 985 l 1115 985 m 461 985 q 614 926 560 985 q 663 790 663 874 q 579 578 663 672 q 350 472 486 472 q 201 528 251 472 q 150 668 150 583 q 232 881 150 788 q 461 985 324 985 m 429 836 q 331 795 368 836 q 293 703 293 754 q 315 644 293 668 q 381 621 338 621 q 479 662 442 621 q 517 754 517 703 q 494 813 517 789 q 429 836 472 836 z "},"&":{"ha":1007,"x_min":50,"x_max":957,"o":"m 910 -1 l 676 -1 l 625 83 q 281 -47 428 -47 q 71 100 124 -47 q 50 215 50 158 q 117 401 50 315 q 339 568 189 493 q 299 644 306 628 q 279 732 279 689 q 283 769 279 750 q 404 951 308 883 q 597 1013 492 1013 q 747 966 686 1013 q 808 838 808 919 q 808 815 808 826 q 803 789 804 797 q 722 644 786 711 q 583 539 675 596 l 692 360 q 776 528 747 442 l 957 528 q 772 224 899 358 l 910 -1 m 629 788 q 632 810 632 804 q 613 853 632 838 q 567 869 594 869 q 506 849 535 869 q 469 792 478 829 q 467 769 467 778 q 482 711 467 742 q 514 660 490 694 q 583 714 551 682 q 629 788 621 753 m 546 214 l 413 442 q 294 352 332 396 q 256 263 256 308 q 268 204 256 233 q 376 135 299 135 q 458 153 417 135 q 546 214 500 172 z "},"'":{"ha":289,"x_min":133,"x_max":408,"o":"m 369 835 q 285 693 351 753 q 133 626 218 633 l 149 697 q 279 829 257 726 l 178 829 l 217 1013 l 408 1013 l 369 835 z "},"(":{"ha":486,"x_min":58,"x_max":606,"o":"m 326 -293 l 181 -293 q 93 -67 124 -178 q 58 182 58 60 q 63 267 58 224 q 76 357 67 310 q 219 703 113 526 q 460 1013 313 854 l 606 1013 q 400 699 483 863 q 276 358 313 528 q 250 114 250 236 q 269 -92 250 7 q 326 -293 288 -192 z "},")":{"ha":486,"x_min":-62,"x_max":485,"o":"m 465 357 q 322 14 429 188 q 83 -293 232 -135 l -62 -293 q 144 23 60 -143 q 265 358 229 189 q 285 478 279 421 q 290 599 290 536 q 272 808 290 706 q 217 1013 253 910 l 363 1013 q 452 781 419 901 q 485 539 485 660 q 481 448 485 490 q 465 357 476 406 z "},"*":{"ha":828,"x_min":274,"x_max":871,"o":"m 871 740 l 665 689 l 764 525 l 625 439 l 543 613 l 386 440 l 286 524 l 456 689 l 274 742 l 347 881 l 518 817 l 560 1013 l 699 1013 l 657 817 l 851 881 l 871 740 z "},"+":{"ha":828,"x_min":118,"x_max":889,"o":"m 860 353 l 558 353 l 483 0 l 343 0 l 418 353 l 118 353 l 147 489 l 447 489 l 522 840 l 663 840 l 588 489 l 889 489 l 860 353 z "},",":{"ha":303,"x_min":-51,"x_max":250,"o":"m 207 6 q 117 -151 186 -87 q -51 -239 49 -214 l -35 -160 q 111 -1 86 -117 l 0 -1 l 44 206 l 250 206 l 207 6 z "},"-":{"ha":525,"x_min":88,"x_max":514,"o":"m 474 279 l 88 279 l 128 468 l 514 468 l 474 279 z "},".":{"ha":303,"x_min":0,"x_max":250,"o":"m 206 0 l 0 0 l 44 207 l 250 207 l 206 0 z "},"/":{"ha":828,"x_min":168,"x_max":854,"o":"m 854 1040 l 261 -129 l 168 -129 l 760 1040 l 854 1040 z "},":":{"ha":304,"x_min":0,"x_max":364,"o":"m 319 528 l 113 528 l 157 735 l 364 735 l 319 528 m 207 0 l 0 0 l 44 207 l 251 207 l 207 0 z "},";":{"ha":306,"x_min":-50,"x_max":365,"o":"m 321 528 l 113 528 l 157 735 l 365 735 l 321 528 m 210 7 q 121 -151 189 -90 q -50 -237 53 -212 l -32 -158 q 71 -99 36 -135 q 114 0 106 -64 l 0 0 l 44 207 l 253 207 l 210 7 z "},"<":{"ha":828,"x_min":111,"x_max":968,"o":"m 796 18 l 111 353 l 140 488 l 968 822 l 935 671 l 321 421 l 828 169 l 796 18 z "},"=":{"ha":828,"x_min":72,"x_max":935,"o":"m 906 501 l 136 501 l 165 635 l 935 635 l 906 501 m 842 204 l 72 204 l 101 339 l 871 339 l 842 204 z "},">":{"ha":828,"x_min":40,"x_max":896,"o":"m 867 353 l 40 18 l 72 169 l 685 421 l 179 671 l 213 822 l 896 488 l 867 353 z "},"?":{"ha":785,"x_min":151,"x_max":851,"o":"m 844 735 q 740 564 824 635 q 592 454 665 508 q 499 293 513 388 l 314 293 l 335 392 q 433 522 349 456 q 632 725 619 668 q 635 760 635 738 q 603 838 635 810 q 525 867 572 867 q 422 828 469 867 q 346 700 368 783 l 151 700 q 301 956 172 861 q 563 1040 417 1040 q 764 981 685 1040 q 851 800 851 914 q 850 769 851 786 q 844 735 849 751 m 446 0 l 243 0 l 286 203 l 489 203 l 446 0 z "},"@":{"ha":1374,"x_min":64,"x_max":1397,"o":"m 1104 -53 q 603 -211 867 -211 q 192 -78 335 -211 q 64 238 64 42 q 299 760 64 522 q 917 1019 554 1019 q 1286 899 1160 1019 q 1397 621 1397 793 q 1256 250 1397 417 q 900 74 1106 74 q 807 90 828 74 q 778 186 778 113 q 670 105 728 135 q 550 75 613 75 q 412 122 457 75 q 367 244 367 168 q 493 539 367 392 q 788 696 628 696 q 876 672 840 696 q 935 604 911 649 l 985 674 l 1108 674 q 1001 447 1046 543 q 908 238 913 260 q 919 200 903 214 q 961 186 936 186 q 1174 318 1078 186 q 1269 600 1269 450 q 1189 813 1269 733 q 908 906 1094 906 q 383 693 597 906 q 188 263 188 499 q 292 6 188 103 q 625 -103 407 -103 q 849 -68 729 -103 q 1067 25 968 -33 l 1104 -53 m 872 483 q 877 501 876 492 q 879 515 878 510 q 849 572 879 549 q 779 596 818 596 q 599 481 682 596 q 521 271 521 372 q 540 201 521 228 q 599 175 560 175 q 719 222 664 175 q 804 333 775 268 l 872 483 z "},"A":{"ha":1069,"x_min":0,"x_max":967,"o":"m 967 0 l 747 0 l 724 208 l 331 208 l 218 0 l 0 0 l 578 1013 l 817 1013 l 967 0 m 704 376 l 654 810 l 421 376 l 704 376 z "},"B":{"ha":938,"x_min":0,"x_max":965,"o":"m 792 547 q 876 474 846 524 q 906 360 906 424 q 900 304 906 331 q 733 75 869 158 q 461 0 613 0 l 0 0 l 217 1013 l 694 1013 q 883 964 810 1013 q 965 811 965 910 q 958 754 965 789 q 901 631 944 688 q 792 547 857 574 m 572 621 q 676 646 629 621 q 746 731 735 676 q 749 753 749 747 q 708 816 749 794 q 615 838 667 838 l 378 838 l 332 621 l 572 621 m 485 182 q 607 211 554 182 q 685 311 671 246 q 688 338 688 331 q 644 418 688 390 q 540 446 600 446 l 294 446 l 238 182 l 485 182 z "},"C":{"ha":1043,"x_min":94,"x_max":1110,"o":"m 1044 346 q 818 70 969 169 q 485 -29 667 -29 q 194 88 300 -29 q 94 375 94 197 q 108 507 94 442 q 324 886 158 738 q 725 1040 496 1040 q 999 940 889 1040 q 1110 679 1110 839 l 890 679 q 822 808 879 760 q 679 857 765 857 q 443 747 544 857 q 322 508 353 649 q 311 408 311 456 q 361 231 311 297 q 526 154 418 154 q 696 205 619 154 q 826 346 772 256 l 1044 346 z "},"D":{"ha":968,"x_min":0,"x_max":990,"o":"m 617 1013 q 892 911 793 1013 q 990 646 990 810 q 976 524 990 593 q 750 147 928 293 q 340 0 572 0 l 0 0 l 217 1013 l 617 1013 m 578 836 l 385 836 l 244 182 l 411 182 q 644 276 547 182 q 765 504 735 364 q 772 549 769 526 q 775 594 775 571 q 729 763 775 697 q 578 836 678 836 z "},"E":{"ha":824,"x_min":0,"x_max":951,"o":"m 761 0 l 0 0 l 217 1013 l 951 1013 l 914 836 l 385 836 l 339 621 l 824 621 l 786 446 l 301 446 l 246 186 l 801 186 l 761 0 z "},"F":{"ha":778,"x_min":0,"x_max":924,"o":"m 886 836 l 385 836 l 335 607 l 775 607 l 738 432 l 297 432 l 206 0 l 0 0 l 217 1013 l 924 1013 l 886 836 z "},"G":{"ha":1057,"x_min":93,"x_max":1110,"o":"m 971 -1 l 829 -1 l 831 118 q 660 8 747 44 q 474 -29 572 -29 q 189 88 292 -29 q 93 374 93 197 q 108 510 93 438 q 319 885 158 738 q 715 1040 490 1040 q 993 950 883 1040 q 1110 697 1110 854 l 885 697 q 817 813 874 768 q 683 858 761 858 q 443 747 546 858 q 321 506 350 649 q 313 457 315 479 q 310 408 310 435 q 364 229 310 296 q 539 154 424 154 q 717 219 632 154 q 840 374 794 279 l 628 374 l 665 547 l 1088 547 l 971 -1 z "},"H":{"ha":953,"x_min":0,"x_max":1054,"o":"m 838 0 l 628 0 l 724 450 l 306 450 l 210 0 l 0 0 l 217 1013 l 426 1013 l 346 635 l 764 635 l 844 1013 l 1054 1013 l 838 0 z "},"I":{"ha":365,"x_min":42,"x_max":467,"o":"m 250 0 l 42 0 l 258 1013 l 467 1013 l 250 0 z "},"J":{"ha":760,"x_min":58,"x_max":865,"o":"m 711 294 q 583 48 675 125 q 322 -29 492 -29 q 115 32 179 -29 q 58 199 58 88 q 81 375 58 271 l 281 375 l 265 310 q 256 235 256 264 q 276 167 256 190 q 351 144 297 144 q 460 193 422 144 q 506 307 489 231 l 657 1013 l 865 1013 l 711 294 z "},"K":{"ha":996,"x_min":0,"x_max":1081,"o":"m 900 0 l 647 0 l 415 463 l 285 356 l 208 0 l 0 0 l 217 1013 l 425 1013 l 336 596 l 821 1013 l 1081 1013 l 590 603 l 900 0 z "},"L":{"ha":763,"x_min":0,"x_max":744,"o":"m 704 0 l 0 0 l 217 1013 l 425 1013 l 249 186 l 744 186 l 704 0 z "},"M":{"ha":1135,"x_min":0,"x_max":1236,"o":"m 1019 0 l 824 0 l 999 818 l 618 0 l 403 0 l 369 818 l 194 0 l 0 0 l 217 1013 l 526 1013 l 561 242 l 925 1013 l 1236 1013 l 1019 0 z "},"N":{"ha":949,"x_min":0,"x_max":1050,"o":"m 833 0 l 618 0 l 354 696 l 206 0 l 0 0 l 217 1013 l 433 1013 l 697 315 l 846 1013 l 1050 1013 l 833 0 z "},"O":{"ha":1094,"x_min":93,"x_max":1118,"o":"m 492 -29 q 194 83 301 -29 q 93 369 93 190 q 108 506 93 432 q 321 883 157 733 q 719 1040 493 1040 q 1017 926 910 1040 q 1118 640 1118 819 q 1114 575 1118 611 q 1103 506 1110 539 q 889 128 1053 278 q 492 -29 717 -29 m 531 154 q 768 267 665 154 q 889 507 860 367 q 900 606 900 560 q 849 782 900 715 q 681 857 790 857 q 442 747 543 857 q 321 507 351 650 q 310 408 310 454 q 361 231 310 297 q 531 154 419 154 z "},"P":{"ha":838,"x_min":0,"x_max":925,"o":"m 286 361 l 208 0 l 0 0 l 217 1013 l 667 1013 q 856 944 788 1013 q 925 763 925 875 q 917 682 925 724 q 784 453 886 544 q 544 361 682 361 l 286 361 m 601 836 l 389 836 l 326 544 l 528 544 q 647 578 597 544 q 717 683 703 615 q 721 718 721 700 q 688 802 721 768 q 601 836 656 836 z "},"Q":{"ha":1096,"x_min":93,"x_max":1118,"o":"m 1004 47 l 867 -71 l 768 42 q 635 -12 707 4 q 490 -29 564 -29 q 194 83 301 -29 q 93 368 93 190 q 108 504 93 431 q 321 882 157 732 q 719 1040 494 1040 q 1015 926 908 1040 q 1118 639 1118 817 q 1114 576 1118 611 q 1103 507 1110 540 q 918 153 1061 311 l 1004 47 m 794 299 q 852 396 829 343 q 887 503 875 449 q 899 607 899 557 q 851 781 899 715 q 689 857 796 857 q 443 746 549 857 q 317 501 347 646 q 307 406 307 457 q 358 231 307 296 q 525 157 415 157 q 654 182 589 157 l 569 288 l 707 406 l 794 299 z "},"R":{"ha":947,"x_min":0,"x_max":983,"o":"m 836 0 l 608 0 q 600 57 600 28 q 614 156 600 93 q 626 213 621 185 q 635 258 632 240 q 638 293 638 275 q 609 368 638 343 q 513 393 581 393 l 292 393 l 208 0 l 0 0 l 217 1013 l 708 1013 q 906 958 829 1013 q 983 799 983 903 q 976 735 983 772 q 906 586 958 653 q 769 486 849 514 q 840 431 819 467 q 861 346 861 396 q 846 238 861 306 q 832 178 838 204 q 825 143 826 151 q 819 94 819 115 q 824 58 819 72 q 843 32 829 43 l 836 0 m 642 838 l 388 838 l 331 572 l 575 572 q 692 604 640 572 q 763 704 750 640 q 765 733 765 714 q 731 810 765 782 q 642 838 696 838 z "},"S":{"ha":915,"x_min":65,"x_max":949,"o":"m 892 307 q 714 56 858 149 q 418 -29 583 -29 q 168 47 265 -29 q 65 268 65 128 q 65 290 65 279 q 68 318 65 301 l 276 318 q 275 297 275 311 q 336 188 275 228 q 469 151 392 151 q 599 181 540 151 q 683 282 669 217 q 686 308 686 301 q 551 413 686 378 q 301 478 310 475 q 165 653 165 533 q 172 719 165 688 q 342 958 204 868 q 622 1040 467 1040 q 857 967 765 1040 q 949 765 949 894 q 944 714 949 742 l 744 714 q 746 732 746 721 q 698 832 746 797 q 578 867 650 867 q 457 839 511 867 q 376 743 390 804 q 374 719 374 726 q 510 617 374 651 q 763 553 758 554 q 899 375 899 497 q 897 342 899 360 q 892 307 896 325 z "},"T":{"ha":894,"x_min":178,"x_max":1025,"o":"m 986 831 l 686 831 l 508 0 l 299 0 l 476 831 l 178 831 l 217 1013 l 1025 1013 l 986 831 z "},"U":{"ha":926,"x_min":67,"x_max":1029,"o":"m 890 363 q 715 79 853 188 q 400 -29 576 -29 q 158 51 250 -29 q 67 269 67 132 q 78 363 67 310 l 217 1013 l 426 1013 l 292 386 q 285 325 285 351 q 324 201 285 250 q 442 153 364 153 q 603 225 533 153 q 685 386 664 289 l 819 1013 l 1029 1013 l 890 363 z "},"V":{"ha":997,"x_min":217,"x_max":1113,"o":"m 1113 1013 l 550 0 l 347 0 l 217 1013 l 449 1013 l 501 256 l 883 1013 l 1113 1013 z "},"W":{"ha":1399,"x_min":217,"x_max":1508,"o":"m 1508 1013 l 1003 0 l 803 0 l 811 776 l 490 0 l 289 0 l 217 1013 l 432 1013 l 453 299 l 751 1013 l 974 1013 l 968 299 l 1293 1013 l 1508 1013 z "},"X":{"ha":999,"x_min":0,"x_max":1111,"o":"m 894 0 l 654 0 l 521 351 l 239 0 l 0 0 l 426 517 l 217 1013 l 456 1013 l 588 660 l 869 1013 l 1111 1013 l 689 519 l 894 0 z "},"Y":{"ha":931,"x_min":217,"x_max":1053,"o":"m 1053 1013 l 613 376 l 532 0 l 322 0 l 403 376 l 217 1013 l 425 1013 l 551 576 l 843 1013 l 1053 1013 z "},"Z":{"ha":906,"x_min":0,"x_max":1021,"o":"m 983 836 l 290 182 l 832 182 l 793 0 l 0 0 l 38 176 l 729 829 l 189 829 l 228 1013 l 1021 1013 l 983 836 z "},"[":{"ha":444,"x_min":-64,"x_max":564,"o":"m 283 -300 l -64 -300 l 217 1013 l 564 1013 l 532 865 l 372 865 l 154 -154 l 314 -154 l 283 -300 z "},"\\":{"ha":532,"x_min":222,"x_max":407,"o":"m 407 -129 l 314 -129 l 222 1040 l 314 1040 l 407 -129 z "},"]":{"ha":446,"x_min":-64,"x_max":565,"o":"m 285 -300 l -64 -300 l -33 -154 l 129 -154 l 347 865 l 185 865 l 217 1013 l 565 1013 l 285 -300 z "},"^":{"ha":828,"x_min":376,"x_max":810,"o":"m 810 836 l 715 836 l 625 988 l 474 836 l 376 836 l 565 1090 l 726 1090 l 810 836 z "},"_":{"ha":828,"x_min":-10,"x_max":726,"o":"m 696 -333 l -10 -333 l 21 -190 l 726 -190 l 696 -333 z "},"`":{"ha":288,"x_min":140,"x_max":413,"o":"m 331 654 l 140 654 l 178 831 q 263 971 194 910 q 413 1040 331 1032 l 397 969 q 309 923 339 953 q 268 836 279 893 l 369 836 l 331 654 z "},"a":{"ha":786,"x_min":38,"x_max":779,"o":"m 700 0 l 490 0 q 483 57 483 31 q 483 75 483 65 q 486 93 486 88 q 367 6 436 38 q 229 -26 299 -26 q 89 21 140 -26 q 38 149 38 68 q 44 206 38 174 q 207 410 76 356 q 439 453 260 432 q 574 522 563 468 q 575 539 575 528 q 541 592 575 572 q 467 611 507 611 q 374 582 415 611 q 322 503 332 553 l 133 503 q 260 705 161 635 q 494 775 360 775 q 679 731 594 775 q 779 590 779 678 q 775 554 779 574 l 686 138 q 682 113 683 121 q 681 90 681 106 q 707 33 681 49 l 700 0 m 529 297 l 543 367 q 369 322 432 340 q 239 217 254 288 q 236 197 236 203 q 262 145 236 164 q 325 126 288 126 q 456 175 399 126 q 529 297 514 224 z "},"b":{"ha":822,"x_min":0,"x_max":815,"o":"m 411 -25 q 291 8 342 -25 q 214 101 240 40 l 192 0 l 0 0 l 217 1013 l 411 1013 l 335 657 q 449 744 383 714 q 582 775 514 775 q 763 689 701 775 q 815 490 815 614 q 803 375 815 432 q 672 107 768 219 q 411 -25 558 -25 m 490 600 q 344 525 407 600 q 272 372 292 463 q 266 326 267 340 q 265 303 265 311 q 292 194 265 235 q 389 146 324 146 q 535 222 472 146 q 607 375 588 286 q 614 442 614 413 q 588 551 614 511 q 490 600 556 600 z "},"c":{"ha":828,"x_min":68,"x_max":856,"o":"m 811 282 q 638 59 756 143 q 379 -25 521 -25 q 152 58 236 -25 q 68 275 68 140 q 69 319 68 304 q 78 367 71 335 q 239 651 114 536 q 536 774 371 774 q 770 699 685 774 q 856 486 856 625 l 640 486 q 599 573 632 539 q 510 607 565 607 q 363 533 428 607 q 285 379 304 468 q 276 304 276 343 q 306 190 276 233 q 408 140 340 140 q 522 181 469 140 q 603 282 575 221 l 811 282 z "},"d":{"ha":836,"x_min":67,"x_max":939,"o":"m 722 0 l 531 0 l 553 101 q 436 8 501 42 q 299 -25 371 -25 q 119 60 179 -25 q 67 257 67 133 q 79 374 67 315 q 210 643 114 531 q 469 775 322 775 q 590 744 538 775 q 668 657 643 713 l 744 1013 l 939 1013 l 722 0 m 490 601 q 347 525 410 601 q 275 374 294 460 q 269 339 271 350 q 268 303 268 328 q 297 190 268 235 q 389 144 325 144 q 536 218 474 144 q 608 371 589 281 q 615 417 614 403 q 615 440 615 432 q 589 551 615 511 q 490 601 557 601 z "},"e":{"ha":808,"x_min":67,"x_max":804,"o":"m 776 321 l 275 321 q 271 295 272 310 q 269 269 269 281 q 303 174 269 207 q 390 140 338 140 q 547 226 482 140 l 749 226 q 574 36 686 104 q 356 -26 471 -26 q 153 46 232 -26 q 67 264 67 125 q 79 369 67 313 q 242 683 122 574 q 528 793 361 793 q 733 725 663 793 q 804 517 804 657 q 776 321 804 435 m 599 453 q 603 476 601 463 q 604 500 604 490 q 572 584 604 556 q 485 613 539 613 q 370 571 419 613 q 306 453 321 529 l 599 453 z "},"f":{"ha":525,"x_min":107,"x_max":643,"o":"m 557 608 l 433 608 l 303 0 l 107 0 l 238 608 l 131 608 l 160 749 l 267 749 q 349 950 297 894 q 549 1019 411 1019 l 643 1015 l 610 856 l 547 856 q 481 826 497 856 q 461 749 476 818 l 586 749 l 557 608 z "},"g":{"ha":839,"x_min":7,"x_max":883,"o":"m 733 49 q 590 -224 693 -143 q 292 -304 486 -304 q 96 -260 171 -304 q 7 -103 7 -207 q 8 -72 7 -83 l 228 -72 q 262 -128 232 -111 q 338 -144 292 -144 q 486 -83 439 -144 q 544 71 521 -39 l 551 104 q 447 26 507 51 q 319 0 386 0 q 129 79 194 0 q 69 272 69 151 q 72 330 69 313 q 81 378 74 347 q 217 647 114 533 q 482 775 332 775 q 674 657 622 775 l 693 749 l 883 749 l 733 49 m 404 167 q 543 238 483 167 q 611 382 593 297 q 617 426 617 413 q 618 447 618 439 q 590 556 618 515 q 493 603 558 603 q 353 532 413 603 q 283 386 301 472 q 278 354 279 364 q 276 322 276 344 q 304 214 276 254 q 404 167 338 167 z "},"h":{"ha":782,"x_min":0,"x_max":783,"o":"m 669 0 l 469 0 l 553 390 q 560 444 557 413 q 564 492 564 476 q 549 572 564 544 q 483 607 529 607 q 367 554 425 607 q 296 442 308 501 l 201 0 l 0 0 l 217 1013 l 418 1013 l 343 665 q 463 744 399 715 q 592 772 528 772 q 738 713 688 772 q 783 567 783 658 q 781 530 783 550 q 774 485 779 510 l 669 0 z "},"i":{"ha":326,"x_min":14,"x_max":431,"o":"m 392 829 l 192 829 l 231 1013 l 431 1013 l 392 829 m 214 0 l 14 0 l 174 749 l 374 749 l 214 0 z "},"j":{"ha":361,"x_min":-111,"x_max":458,"o":"m 419 829 l 219 829 l 258 1013 l 458 1013 l 419 829 m 217 -119 q 124 -268 194 -222 q -44 -308 63 -308 l -111 -306 l -75 -137 l -54 -137 q -2 -128 -21 -137 q 24 -86 17 -118 l 201 749 l 401 749 l 217 -119 z "},"k":{"ha":771,"x_min":0,"x_max":835,"o":"m 689 0 l 450 0 l 339 317 l 247 238 l 196 0 l 0 0 l 217 1013 l 413 1013 l 299 483 l 593 749 l 835 749 l 514 469 l 689 0 z "},"l":{"ha":363,"x_min":42,"x_max":457,"o":"m 240 0 l 42 0 l 258 1013 l 457 1013 l 240 0 z "},"m":{"ha":1174,"x_min":0,"x_max":1183,"o":"m 1065 0 l 867 0 l 969 483 q 972 514 972 493 q 949 573 972 550 q 888 596 926 596 q 783 554 829 596 q 725 454 738 513 l 628 0 l 433 0 l 536 481 q 539 497 539 489 q 539 508 539 504 q 450 594 539 594 q 349 554 390 594 q 294 453 307 514 l 197 0 l 0 0 l 160 749 l 349 749 l 331 665 q 439 744 379 715 q 558 774 499 774 q 669 743 621 774 q 749 660 718 713 q 855 744 794 714 q 981 775 915 775 q 1128 719 1072 775 q 1183 576 1183 664 q 1183 556 1183 567 q 1178 524 1182 544 l 1065 0 z "},"n":{"ha":782,"x_min":0,"x_max":786,"o":"m 669 0 l 469 0 l 567 453 q 570 475 568 464 q 572 501 572 486 q 551 574 572 547 q 482 601 531 601 q 364 553 419 601 q 294 442 308 506 l 200 0 l 0 0 l 160 749 l 354 749 l 336 660 q 449 744 382 714 q 582 775 517 775 q 733 722 679 775 q 786 578 786 668 q 778 510 786 546 l 669 0 z "},"o":{"ha":871,"x_min":68,"x_max":854,"o":"m 375 -25 q 149 58 231 -25 q 68 275 68 140 q 79 372 68 319 q 245 660 117 546 q 546 775 374 775 q 772 692 690 775 q 854 472 854 608 q 843 372 854 428 q 676 88 806 200 q 375 -25 546 -25 m 410 142 q 561 217 497 142 q 636 374 617 282 q 644 444 644 410 q 614 557 644 514 q 508 607 578 607 q 358 531 424 607 q 283 374 304 467 q 276 306 276 336 q 306 192 276 233 q 410 142 340 142 z "},"p":{"ha":824,"x_min":-64,"x_max":815,"o":"m 411 -25 q 290 5 343 -25 q 214 92 238 35 l 131 -299 l -64 -299 l 160 750 l 351 750 l 331 647 q 447 741 382 707 q 582 775 513 775 q 763 689 701 775 q 815 492 815 615 q 803 376 815 433 q 672 107 768 219 q 411 -25 560 -25 m 493 603 q 346 529 408 603 q 274 376 293 467 q 265 307 265 343 q 293 196 265 238 q 393 147 326 147 q 536 222 475 147 q 606 372 588 285 q 614 444 614 406 q 588 554 614 513 q 493 603 557 603 z "},"q":{"ha":833,"x_min":67,"x_max":882,"o":"m 658 -299 l 464 -299 l 549 97 q 300 -25 442 -25 q 119 60 181 -25 q 67 257 67 133 q 79 372 67 315 q 210 643 114 531 q 471 775 322 775 q 590 742 538 775 q 671 654 642 710 l 690 750 l 882 750 l 658 -299 m 490 601 q 349 528 410 601 q 278 379 297 465 q 272 345 274 358 q 271 307 271 332 q 296 196 271 238 q 389 144 326 144 q 536 218 472 144 q 610 371 590 282 q 618 440 618 404 q 590 551 618 510 q 490 601 557 601 z "},"r":{"ha":513,"x_min":0,"x_max":596,"o":"m 553 564 q 383 536 440 564 q 285 396 307 499 l 200 0 l 0 0 l 160 749 l 343 749 l 315 618 q 596 768 431 768 l 553 564 z "},"s":{"ha":775,"x_min":49,"x_max":771,"o":"m 729 229 q 575 33 703 106 q 335 -29 465 -29 q 135 26 213 -29 q 49 196 49 88 q 53 244 49 219 l 254 244 q 253 226 253 238 q 292 153 253 178 q 386 128 331 128 q 468 144 429 128 q 526 206 518 165 q 436 282 538 254 q 242 336 247 333 q 133 482 133 385 q 133 502 133 493 q 139 533 133 511 q 282 717 163 647 q 507 778 386 778 q 697 719 624 778 q 771 551 771 660 q 769 522 771 532 l 575 522 q 547 597 581 571 q 461 622 513 622 q 385 606 424 622 q 340 557 347 590 q 431 478 329 510 q 625 417 619 419 q 733 275 733 367 q 729 229 733 246 z "},"t":{"ha":511,"x_min":129,"x_max":572,"o":"m 411 -6 q 338 -8 389 -6 q 285 -11 288 -11 q 165 17 200 -11 q 129 111 129 46 q 140 203 129 147 l 228 608 l 131 608 l 160 749 l 257 749 l 300 951 l 500 951 l 457 749 l 572 749 l 543 608 l 428 608 l 338 192 q 349 153 332 163 q 397 143 365 143 q 421 143 410 143 q 443 144 432 143 l 411 -6 z "},"u":{"ha":782,"x_min":43,"x_max":828,"o":"m 668 0 l 474 0 l 493 89 q 366 10 435 39 q 229 -19 297 -19 q 90 31 138 -19 q 43 167 43 81 q 51 239 43 201 l 160 749 l 358 749 l 263 296 q 257 246 257 274 q 278 173 257 200 q 347 146 300 146 q 466 192 411 146 q 535 304 521 239 l 629 749 l 828 749 l 668 0 z "},"v":{"ha":828,"x_min":160,"x_max":900,"o":"m 900 749 l 474 0 l 267 0 l 160 749 l 382 749 l 418 211 l 689 749 l 900 749 z "},"w":{"ha":1150,"x_min":160,"x_max":1217,"o":"m 1217 749 l 849 0 l 647 0 l 642 536 l 413 0 l 211 0 l 160 749 l 363 749 l 374 228 l 589 749 l 793 749 l 789 228 l 1024 749 l 1217 749 z "},"x":{"ha":826,"x_min":0,"x_max":885,"o":"m 739 0 l 504 0 l 418 238 l 231 0 l 0 0 l 335 382 l 171 749 l 399 749 l 483 522 l 663 749 l 885 749 l 571 385 l 739 0 z "},"y":{"ha":828,"x_min":63,"x_max":899,"o":"m 899 749 l 422 -107 q 310 -237 371 -197 q 154 -276 249 -276 q 105 -274 132 -276 q 63 -271 78 -272 l 97 -110 q 124 -113 111 -111 q 154 -115 136 -115 q 265 -17 246 -115 q 244 174 268 -3 q 196 515 219 351 q 160 749 178 632 l 378 749 l 421 207 l 689 749 l 899 749 z "},"z":{"ha":753,"x_min":0,"x_max":810,"o":"m 664 0 l 0 0 l 33 154 l 538 590 l 151 590 l 185 749 l 810 749 l 775 585 l 281 165 l 699 165 l 664 0 z "},"{":{"ha":599,"x_min":63,"x_max":718,"o":"m 440 -285 q 213 -236 281 -285 q 157 -117 157 -196 q 189 38 157 -67 q 221 183 221 142 q 189 263 221 236 q 63 293 151 293 l 93 438 q 313 586 278 438 q 368 865 340 725 q 718 1015 442 1015 l 688 872 q 506 767 540 872 q 469 547 488 657 q 285 365 432 411 q 371 317 346 351 q 396 232 396 282 q 368 92 396 188 q 340 -43 340 -4 q 369 -115 340 -89 q 471 -140 399 -140 l 440 -285 z "},"|":{"ha":240,"x_min":-51,"x_max":354,"o":"m 242 463 l 99 463 l 211 985 l 354 985 l 242 463 m 92 -242 l -51 -242 l 60 281 l 203 281 l 92 -242 z "},"}":{"ha":597,"x_min":-61,"x_max":593,"o":"m 563 293 q 349 144 382 293 q 293 -135 321 4 q -61 -285 218 -285 l -31 -140 q 146 -31 110 -140 q 188 190 167 79 q 372 365 228 325 q 285 422 310 385 q 260 511 260 458 q 288 653 260 558 q 317 781 317 747 q 290 847 317 826 q 186 872 260 872 l 217 1015 q 446 968 378 1015 q 503 850 503 928 q 467 690 503 797 q 432 543 432 582 q 467 465 432 492 q 593 438 501 438 l 563 293 z "},"~":{"ha":949,"x_min":140,"x_max":1058,"o":"m 1058 968 q 957 751 1029 832 q 740 657 872 657 q 566 744 649 657 q 438 831 483 831 q 328 775 369 831 q 279 657 296 732 l 140 657 q 244 871 168 788 q 458 967 332 967 q 631 879 549 967 q 767 792 713 792 q 872 850 833 792 q 919 968 899 889 l 1058 968 z "},"ƒ":{"ha":525,"x_min":-106,"x_max":657,"o":"m 571 608 l 447 608 l 90 -278 l -106 -278 l 251 608 l 144 608 l 174 749 l 281 749 q 363 950 311 894 q 563 1019 425 1019 l 657 1015 l 624 856 l 561 856 q 494 826 511 856 q 475 749 490 818 l 600 749 l 571 608 z "},"„":{"ha":588,"x_min":-51,"x_max":528,"o":"m 207 6 q 117 -151 186 -87 q -51 -239 49 -214 l -35 -160 q 111 -1 86 -117 l 0 -1 l 44 206 l 250 206 l 207 6 m 485 6 q 395 -151 464 -87 q 226 -239 326 -214 l 243 -160 q 389 -1 364 -117 l 278 -1 l 322 206 l 528 206 l 485 6 z "},"…":{"ha":963,"x_min":0,"x_max":863,"o":"m 206 0 l 0 0 l 44 207 l 250 207 l 206 0 m 511 0 l 306 0 l 350 207 l 556 207 l 511 0 m 818 0 l 613 0 l 657 207 l 863 207 l 818 0 z "},"†":{"ha":894,"x_min":133,"x_max":981,"o":"m 681 804 l 981 804 l 942 622 l 642 622 l 508 0 l 299 0 l 432 622 l 133 622 l 172 804 l 471 804 l 515 1011 l 725 1011 l 681 804 z "},"‡":{"ha":894,"x_min":44,"x_max":981,"o":"m 432 622 l 133 622 l 172 804 l 471 804 l 515 1011 l 725 1011 l 681 804 l 981 804 l 942 622 l 642 622 l 592 388 l 892 388 l 853 206 l 553 206 l 508 0 l 299 0 l 343 206 l 44 206 l 83 388 l 382 388 l 432 622 z "},"‰":{"ha":1775,"x_min":150,"x_max":1738,"o":"m 965 485 q 1119 426 1065 485 q 1168 289 1168 374 q 1083 76 1168 172 q 854 -29 990 -29 q 700 29 754 -29 q 651 168 651 82 q 735 381 651 286 q 965 485 826 485 m 886 119 q 981 160 944 119 q 1018 251 1018 201 q 999 308 1018 288 q 932 333 975 333 q 837 292 874 333 q 800 201 800 251 q 822 142 800 165 q 886 119 843 119 m 1115 985 l 311 -28 l 200 -28 l 1004 985 l 1115 985 m 461 985 q 614 926 560 985 q 663 790 663 874 q 579 578 663 672 q 350 472 486 472 q 201 528 251 472 q 150 668 150 583 q 232 881 150 788 q 461 985 324 985 m 429 836 q 331 795 368 836 q 293 703 293 754 q 315 644 293 668 q 381 621 338 621 q 479 662 442 621 q 517 754 517 703 q 494 813 517 789 q 429 836 472 836 m 1535 485 q 1689 426 1635 485 q 1738 289 1738 374 q 1653 76 1738 172 q 1424 -29 1560 -29 q 1269 29 1324 -29 q 1221 168 1221 82 q 1304 381 1221 286 q 1535 485 1396 485 m 1456 119 q 1551 160 1514 119 q 1588 251 1588 201 q 1568 308 1588 288 q 1501 333 1544 333 q 1406 292 1443 333 q 1369 201 1369 251 q 1391 142 1369 165 q 1456 119 1413 119 z "},"‹":{"ha":828,"x_min":111,"x_max":968,"o":"m 796 18 l 111 353 l 140 488 l 968 822 l 935 671 l 321 421 l 828 169 l 796 18 z "},"‘":{"ha":289,"x_min":135,"x_max":407,"o":"m 325 631 l 135 631 l 172 807 q 258 948 189 886 q 407 1017 326 1010 l 393 947 q 263 813 286 921 l 364 813 l 325 631 z "},"’":{"ha":289,"x_min":133,"x_max":408,"o":"m 369 835 q 285 693 351 751 q 133 626 218 635 l 149 697 q 279 831 256 724 l 178 831 l 217 1013 l 408 1013 l 369 835 z "},"“":{"ha":567,"x_min":135,"x_max":685,"o":"m 325 631 l 135 631 l 172 807 q 258 948 189 886 q 407 1017 326 1010 l 393 947 q 263 813 286 921 l 364 813 l 325 631 m 603 631 l 413 631 l 450 807 q 535 948 467 886 q 685 1017 604 1010 l 671 947 q 540 813 564 921 l 642 813 l 603 631 z "},"”":{"ha":567,"x_min":133,"x_max":686,"o":"m 369 835 q 285 693 351 751 q 133 626 218 635 l 149 697 q 279 831 256 724 l 178 831 l 217 1013 l 408 1013 l 369 835 m 647 835 q 563 693 629 751 q 411 626 496 635 l 426 697 q 557 831 533 724 l 456 831 l 494 1013 l 686 1013 l 647 835 z "},"•":{"ha":775,"x_min":74,"x_max":807,"o":"m 800 508 q 643 253 768 358 q 364 147 518 147 q 154 228 235 147 q 74 435 74 308 q 75 472 74 453 q 81 508 76 490 q 239 762 113 656 q 518 868 365 868 q 726 786 646 868 q 807 581 807 704 q 806 545 807 564 q 800 508 804 526 z "},"–":{"ha":801,"x_min":64,"x_max":800,"o":"m 768 297 l 64 297 l 96 450 l 800 450 l 768 297 z "},"—":{"ha":1039,"x_min":64,"x_max":1038,"o":"m 1006 297 l 64 297 l 96 450 l 1038 450 l 1006 297 z "},"™":{"ha":1063,"x_min":197,"x_max":1168,"o":"m 601 921 l 451 921 l 363 506 l 257 506 l 346 921 l 197 921 l 217 1013 l 621 1013 l 601 921 m 1060 506 l 961 506 l 1049 915 l 858 506 l 751 506 l 735 915 l 647 506 l 550 506 l 658 1013 l 813 1013 l 829 626 l 1013 1013 l 1168 1013 l 1060 506 z "},"›":{"ha":828,"x_min":40,"x_max":896,"o":"m 867 353 l 40 18 l 72 169 l 685 421 l 179 671 l 213 822 l 896 488 l 867 353 z "}," ":{"ha":853,"x_min":0,"x_max":0,"o":""},"£":{"ha":814,"x_min":25,"x_max":839,"o":"m 725 39 q 602 -9 660 6 q 499 -24 544 -24 q 338 8 449 -24 q 244 25 279 25 q 164 13 206 25 q 72 -29 122 0 l 25 114 q 174 228 138 186 q 224 360 224 285 q 213 440 224 392 l 94 440 l 110 515 l 183 515 q 169 589 175 551 q 163 663 163 626 q 167 711 163 688 q 314 911 193 832 q 560 985 426 985 q 754 921 679 985 q 839 714 839 849 q 839 693 839 703 q 836 668 836 676 l 644 668 q 647 703 647 693 q 613 799 647 767 q 526 831 579 831 q 426 797 472 831 q 367 706 379 763 q 363 664 363 685 q 373 592 363 632 q 393 515 383 551 l 589 515 l 574 440 l 404 440 q 361 271 404 335 q 217 135 328 221 q 297 160 258 153 q 368 168 335 168 q 488 151 403 168 q 554 143 529 143 q 622 153 590 143 q 694 189 653 163 l 725 39 z "},"¤":{"ha":825,"x_min":113,"x_max":899,"o":"m 899 792 l 738 660 q 744 624 743 633 q 744 604 744 615 q 699 460 744 526 l 799 332 l 672 225 l 568 353 q 454 331 515 331 q 350 353 394 331 l 194 225 l 113 331 l 265 458 q 261 503 261 479 q 314 658 261 585 l 210 793 l 339 897 l 447 760 q 550 776 497 776 q 601 772 579 776 q 646 760 622 768 l 814 897 l 899 792 m 522 644 q 435 610 468 644 q 401 532 401 575 q 422 481 401 501 q 482 461 442 461 q 569 496 536 461 q 603 574 603 531 q 583 624 603 604 q 522 644 563 644 z "},"¥":{"ha":931,"x_min":129,"x_max":1053,"o":"m 329 625 l 217 1013 l 425 1013 l 551 576 l 843 1013 l 1053 1013 l 783 625 l 911 625 l 879 472 l 679 472 l 621 389 l 861 389 l 828 236 l 582 236 l 532 0 l 322 0 l 372 236 l 129 236 l 163 389 l 399 389 l 375 472 l 181 472 l 213 625 l 329 625 z "},"§":{"ha":731,"x_min":63,"x_max":749,"o":"m 733 469 q 571 275 706 338 q 619 147 619 224 q 615 106 619 126 q 489 -76 592 -7 q 281 -142 393 -142 q 128 -93 186 -142 q 63 61 63 -39 q 67 108 63 83 l 236 108 q 262 28 236 54 q 326 1 288 1 q 397 24 364 1 q 438 83 429 47 q 439 100 439 89 q 351 196 439 147 q 186 288 189 286 q 97 433 97 351 q 101 476 97 453 q 156 583 114 538 q 263 660 197 628 q 231 708 243 681 q 219 763 219 735 q 222 790 219 771 q 343 978 247 907 q 536 1042 431 1042 q 688 991 626 1042 q 749 843 749 940 q 749 826 749 835 q 746 807 746 813 l 581 807 q 583 831 583 824 q 560 883 583 865 q 500 900 536 900 q 433 881 464 900 q 396 829 403 863 q 472 737 386 782 q 643 649 557 692 q 738 508 738 588 q 733 469 738 490 m 492 335 q 563 422 563 378 q 546 465 563 444 q 497 503 529 485 l 338 596 q 281 551 297 572 q 264 510 264 531 q 290 457 264 482 q 353 414 311 436 l 492 335 z "},"¨":{"ha":933,"x_min":436,"x_max":869,"o":"m 833 1046 l 678 1046 l 714 1215 l 869 1215 l 833 1046 m 593 1046 l 436 1046 l 472 1215 l 629 1215 l 593 1046 z "},"©":{"ha":1104,"x_min":97,"x_max":1126,"o":"m 506 -6 q 196 113 304 -6 q 97 389 97 219 q 263 811 97 625 q 719 1017 444 1017 q 1029 899 921 1017 q 1126 622 1126 793 q 961 200 1126 386 q 506 -6 779 -6 m 703 933 q 317 761 471 933 q 176 406 176 604 q 257 175 176 263 q 518 76 347 76 q 903 250 749 76 q 1044 607 1044 410 q 964 836 1044 750 q 703 933 874 933 m 846 410 q 733 256 817 314 q 549 197 649 197 q 381 264 439 197 q 328 422 328 325 q 421 682 328 564 q 668 811 524 811 q 822 765 760 811 q 885 633 885 718 q 883 615 883 622 l 753 615 q 733 690 758 660 q 664 719 707 719 q 521 625 579 719 q 469 439 469 542 q 493 338 469 378 q 563 299 517 299 q 653 328 615 299 q 713 410 692 357 l 846 410 z "},"ª":{"ha":393,"x_min":153,"x_max":524,"o":"m 483 625 l 379 625 q 376 650 376 636 q 376 672 376 664 q 249 611 325 611 q 153 700 153 611 q 156 728 153 718 q 297 846 178 828 q 421 886 417 864 q 408 919 425 907 q 367 931 390 931 q 319 917 339 931 q 296 876 300 904 l 201 876 q 265 977 215 942 q 382 1013 315 1013 q 474 992 433 1013 q 524 921 524 965 q 522 903 524 908 l 478 694 q 475 669 475 678 q 488 642 475 649 l 483 625 m 399 774 l 406 808 q 297 779 351 793 q 254 733 261 763 q 261 701 249 713 q 297 689 274 689 q 363 713 335 689 q 399 774 392 736 z "},"«":{"ha":624,"x_min":61,"x_max":668,"o":"m 544 88 l 358 286 l 396 461 l 668 660 l 632 496 l 465 374 l 579 250 l 544 88 m 247 88 l 61 286 l 99 461 l 371 660 l 335 496 l 168 374 l 282 250 l 247 88 z "},"¬":{"ha":801,"x_min":64,"x_max":800,"o":"m 724 93 l 571 93 l 615 297 l 64 297 l 96 450 l 800 450 l 724 93 z "},"®":{"ha":1104,"x_min":97,"x_max":1126,"o":"m 506 -6 q 196 113 304 -6 q 97 389 97 219 q 263 811 97 625 q 719 1017 444 1017 q 1029 899 921 1017 q 1126 622 1126 793 q 961 200 1126 386 q 506 -6 779 -6 m 703 933 q 317 761 471 933 q 176 406 176 604 q 257 175 176 263 q 518 76 347 76 q 903 250 749 76 q 1044 607 1044 410 q 964 836 1044 750 q 703 933 874 933 m 822 190 l 679 190 q 674 224 674 206 q 680 271 674 242 q 692 326 686 300 q 698 356 697 351 q 699 378 699 361 q 681 424 699 408 q 621 439 663 439 l 482 439 l 428 190 l 297 190 l 435 829 l 744 829 q 869 795 822 829 q 917 694 917 761 q 913 654 917 675 q 867 560 901 604 q 782 497 832 515 q 826 464 813 486 q 839 411 839 442 q 833 357 839 385 q 820 299 824 318 q 815 267 817 281 q 813 251 813 254 q 828 213 813 224 l 822 190 m 700 718 l 540 718 l 506 551 l 660 551 q 735 572 703 551 q 778 635 768 593 q 779 653 779 642 q 758 701 779 683 q 700 718 736 718 z "},"¯":{"ha":771,"x_min":204,"x_max":1013,"o":"m 979 958 l 204 958 l 238 1111 l 1013 1111 l 979 958 z "},"°":{"ha":460,"x_min":207,"x_max":579,"o":"m 353 808 q 244 848 281 808 q 207 950 207 888 q 267 1101 207 1035 q 432 1175 332 1175 q 544 1133 506 1175 q 579 1035 579 1096 q 518 883 579 951 q 353 808 451 808 m 375 908 q 448 940 419 908 q 476 1011 476 972 q 460 1057 476 1039 q 410 1075 443 1075 q 336 1043 364 1075 q 308 974 308 1011 q 325 926 308 944 q 375 908 342 908 z "},"±":{"ha":828,"x_min":29,"x_max":931,"o":"m 901 481 l 588 481 l 539 254 l 399 254 l 447 481 l 132 481 l 161 615 l 475 615 l 524 842 l 664 842 l 615 615 l 931 615 l 901 481 m 799 0 l 29 0 l 58 136 l 828 136 l 799 0 z "},"´":{"ha":299,"x_min":129,"x_max":343,"o":"m 261 604 l 129 604 l 211 988 l 343 988 l 261 604 z "},"µ":{"ha":754,"x_min":-60,"x_max":807,"o":"m 647 0 l 478 0 l 492 68 q 413 10 454 31 q 328 -11 372 -11 q 262 3 293 -11 q 208 43 231 18 l 139 -278 l -60 -278 l 160 749 l 358 749 l 275 358 q 265 303 268 326 q 261 254 261 281 q 283 180 261 208 q 354 151 304 151 q 488 240 443 151 q 535 401 508 283 l 608 749 l 807 749 l 647 0 z "},"¶":{"ha":678,"x_min":168,"x_max":792,"o":"m 211 892 l 243 892 l 261 761 l 336 892 l 367 892 l 335 738 l 314 738 l 342 867 l 265 738 l 246 738 l 226 871 l 197 738 l 178 738 l 211 892 m 492 854 l 464 731 q 401 690 456 690 q 376 690 389 690 q 358 696 364 694 l 360 713 l 404 706 q 444 733 436 706 l 451 764 q 403 740 436 740 q 363 778 363 740 q 364 797 363 790 q 446 860 376 860 q 463 860 456 860 q 492 854 471 860 m 469 842 l 444 843 q 382 796 394 843 q 381 782 381 790 q 410 756 381 756 q 458 796 449 756 l 469 842 m 778 988 l 714 988 l 503 -1 l 439 -1 l 650 988 l 528 988 l 317 -1 l 253 -1 l 382 601 q 221 653 285 601 q 168 764 168 697 q 172 806 168 785 q 313 989 194 918 q 535 1053 421 1053 l 792 1053 l 778 988 z "},"·":{"ha":304,"x_min":113,"x_max":364,"o":"m 319 528 l 113 528 l 157 735 l 364 735 l 319 528 z "},"∙":{"ha":304,"x_min":113,"x_max":364,"o":"m 319 528 l 113 528 l 157 735 l 364 735 l 319 528 z "},"»":{"ha":624,"x_min":18,"x_max":625,"o":"m 588 286 l 315 88 l 350 250 l 517 374 l 403 496 l 439 660 l 625 461 l 588 286 m 290 286 l 18 88 l 53 250 l 219 374 l 106 496 l 142 660 l 328 461 l 290 286 z "},"ÿ":{"ha":125,"x_min":3,"x_max":50,"o":"m 47 3 q 36 -7 46 -7 q 28 0 28 -7 q 38 -4 31 -4 q 44 3 44 -1 l 38 0 q 31 10 29 0 q 42 19 32 19 l 47 15 l 49 19 l 47 3 m 38 1 q 47 9 44 1 q 42 17 50 17 q 32 9 35 17 q 38 1 29 1 m 26 0 l 28 22 l 14 0 l 7 22 l 3 0 l 6 25 l 15 4 l 28 25 l 26 0 z "},"π":{"ha":938,"x_min":88,"x_max":999,"o":"m 965 593 l 876 593 l 750 0 l 549 0 l 675 593 l 413 593 l 286 0 l 88 0 l 214 593 l 126 593 l 160 749 l 999 749 l 965 593 z "},"¦":{"ha":240,"x_min":-51,"x_max":354,"o":"m 242 463 l 99 463 l 211 985 l 354 985 l 242 463 m 92 -242 l -51 -242 l 60 281 l 203 281 l 92 -242 z "},"­":{"ha":801,"x_min":64,"x_max":800,"o":"m 768 297 l 64 297 l 96 450 l 800 450 l 768 297 z "},"²":{"ha":560,"x_min":82,"x_max":636,"o":"m 632 792 q 500 628 614 707 q 254 483 376 556 l 558 483 l 538 382 l 82 382 q 208 565 106 489 q 389 672 228 579 q 499 785 486 728 q 500 804 500 792 q 476 856 500 836 q 418 875 453 875 q 347 850 378 875 q 294 763 310 819 l 172 763 q 283 925 203 868 q 444 976 357 976 q 581 935 525 976 q 636 825 636 894 q 632 792 636 808 z "},"³":{"ha":564,"x_min":115,"x_max":621,"o":"m 585 556 q 482 414 565 467 q 308 365 406 365 q 174 403 225 365 q 115 521 115 444 q 121 565 115 532 l 244 565 q 269 487 244 513 q 332 461 294 461 q 405 487 371 461 q 447 554 439 513 q 450 576 450 571 q 414 628 450 615 q 325 642 378 642 l 342 722 q 428 738 393 722 q 485 804 475 758 q 486 819 486 810 q 466 865 486 847 q 414 882 446 882 q 349 858 379 882 q 304 783 319 833 l 181 783 q 286 931 208 879 q 439 976 354 976 q 568 940 515 976 q 621 842 621 903 q 618 814 621 833 q 583 744 610 772 q 514 696 557 717 q 569 652 550 679 q 589 588 589 625 q 585 556 589 572 z "},"½":{"ha":1188,"x_min":149,"x_max":1176,"o":"m 1172 381 q 1043 231 1154 301 q 801 101 922 165 q 843 94 806 96 q 944 93 881 93 l 971 93 l 994 93 l 1014 93 l 1031 93 q 1068 93 1049 93 q 1107 94 1088 93 l 1086 0 l 650 0 l 663 39 q 782 182 688 115 q 951 282 865 231 q 1046 376 1036 333 q 1047 385 1047 381 q 1047 392 1047 390 q 1024 441 1047 421 q 968 461 1001 461 q 899 435 931 461 q 850 354 867 410 l 735 354 q 842 506 763 451 q 997 554 913 554 q 1124 517 1072 554 q 1176 414 1176 479 q 1172 381 1176 400 m 1082 999 l 263 -28 l 149 -28 l 971 999 l 1082 999 m 363 422 l 238 422 l 318 799 l 171 799 l 188 875 q 324 903 279 875 q 379 974 360 925 l 481 974 l 363 422 z "},"Α":{"ha":1043,"x_min":0,"x_max":967,"o":"m 967 0 l 747 0 l 724 208 l 331 208 l 218 0 l 0 0 l 578 1013 l 817 1013 l 967 0 m 704 376 l 654 810 l 421 376 l 704 376 z "},"Β":{"ha":961,"x_min":0,"x_max":965,"o":"m 792 547 q 876 474 846 524 q 906 360 906 424 q 900 304 906 331 q 733 75 869 158 q 461 0 613 0 l 0 0 l 217 1013 l 694 1013 q 883 964 810 1013 q 965 811 965 910 q 958 754 965 789 q 901 631 944 688 q 792 547 857 574 m 572 621 q 676 646 629 621 q 746 731 735 676 q 749 753 749 747 q 708 816 749 794 q 615 838 667 838 l 378 838 l 332 621 l 572 621 m 485 182 q 607 211 554 182 q 685 311 671 246 q 688 338 688 331 q 644 418 688 390 q 540 446 600 446 l 294 446 l 238 182 l 485 182 z "},"Γ":{"ha":742,"x_min":0,"x_max":921,"o":"m 883 836 l 388 836 l 208 0 l 0 0 l 217 1013 l 921 1013 l 883 836 z "},"Δ":{"ha":1057,"x_min":0,"x_max":982,"o":"m 982 0 l 0 0 l 603 1013 l 811 1013 l 982 0 m 753 175 l 654 765 l 304 175 l 753 175 z "},"Ε":{"ha":824,"x_min":0,"x_max":951,"o":"m 761 0 l 0 0 l 217 1013 l 951 1013 l 914 836 l 385 836 l 339 621 l 824 621 l 786 446 l 301 446 l 246 186 l 801 186 l 761 0 z "},"Ζ":{"ha":886,"x_min":0,"x_max":1021,"o":"m 983 836 l 290 182 l 832 182 l 793 0 l 0 0 l 38 176 l 729 829 l 189 829 l 228 1013 l 1021 1013 l 983 836 z "},"Η":{"ha":950,"x_min":0,"x_max":1054,"o":"m 838 0 l 628 0 l 724 450 l 306 450 l 210 0 l 0 0 l 217 1013 l 426 1013 l 346 635 l 764 635 l 844 1013 l 1054 1013 l 838 0 z "},"Θ":{"ha":1092,"x_min":93,"x_max":1117,"o":"m 492 -29 q 194 83 301 -29 q 93 369 93 190 q 108 506 93 432 q 322 883 157 732 q 719 1040 494 1040 q 1015 926 908 1040 q 1117 640 1117 818 q 1113 575 1117 611 q 1101 506 1108 539 q 889 128 1051 278 q 492 -29 718 -29 m 531 154 q 769 267 667 154 q 890 507 861 365 q 901 606 901 560 q 850 782 901 715 q 681 858 792 858 q 442 747 546 858 q 319 507 349 649 q 311 458 314 481 q 308 410 308 436 q 360 231 308 297 q 531 154 418 154 m 768 431 l 408 431 l 443 593 l 803 593 l 768 431 z "},"Ι":{"ha":413,"x_min":42,"x_max":467,"o":"m 250 0 l 42 0 l 258 1013 l 467 1013 l 250 0 z "},"Κ":{"ha":969,"x_min":0,"x_max":1081,"o":"m 900 0 l 647 0 l 415 463 l 285 356 l 208 0 l 0 0 l 217 1013 l 425 1013 l 336 596 l 821 1013 l 1081 1013 l 590 603 l 900 0 z "},"Λ":{"ha":974,"x_min":0,"x_max":894,"o":"m 894 0 l 667 0 l 608 757 l 225 0 l 0 0 l 561 1013 l 764 1013 l 894 0 z "},"Μ":{"ha":1132,"x_min":0,"x_max":1236,"o":"m 1019 0 l 824 0 l 999 818 l 618 0 l 403 0 l 369 818 l 194 0 l 0 0 l 217 1013 l 526 1013 l 561 242 l 925 1013 l 1236 1013 l 1019 0 z "},"Ν":{"ha":946,"x_min":0,"x_max":1050,"o":"m 833 0 l 618 0 l 354 696 l 206 0 l 0 0 l 217 1013 l 433 1013 l 697 315 l 846 1013 l 1050 1013 l 833 0 z "},"Ξ":{"ha":800,"x_min":0,"x_max":950,"o":"m 910 826 l 182 826 l 222 1013 l 950 1013 l 910 826 m 774 432 l 157 432 l 197 617 l 814 617 l 774 432 m 751 0 l 0 0 l 39 183 l 790 183 l 751 0 z "},"Ο":{"ha":1092,"x_min":93,"x_max":1118,"o":"m 492 -29 q 194 83 301 -29 q 93 369 93 190 q 108 506 93 432 q 321 883 157 733 q 719 1040 493 1040 q 1017 926 910 1040 q 1118 640 1118 819 q 1114 575 1118 611 q 1103 506 1110 539 q 889 128 1053 278 q 492 -29 717 -29 m 531 154 q 768 267 665 154 q 889 507 860 367 q 900 606 900 560 q 849 782 900 715 q 681 857 790 857 q 442 747 543 857 q 321 507 351 650 q 310 408 310 454 q 361 231 310 297 q 531 154 419 154 z "},"Π":{"ha":922,"x_min":0,"x_max":1026,"o":"m 810 0 l 599 0 l 778 836 l 388 836 l 208 0 l 0 0 l 217 1013 l 1026 1013 l 810 0 z "},"Ρ":{"ha":838,"x_min":0,"x_max":925,"o":"m 286 361 l 208 0 l 0 0 l 217 1013 l 667 1013 q 856 944 788 1013 q 925 763 925 875 q 917 682 925 724 q 784 453 886 544 q 544 361 682 361 l 286 361 m 601 836 l 389 836 l 326 544 l 528 544 q 647 578 597 544 q 717 683 703 615 q 721 718 721 700 q 688 802 721 768 q 601 836 656 836 z "},"΅":{"ha":753,"x_min":231,"x_max":786,"o":"m 757 810 l 628 810 l 657 951 l 786 951 l 757 810 m 749 1064 l 479 810 l 381 810 l 571 1064 l 749 1064 m 360 810 l 231 810 l 260 951 l 389 951 l 360 810 z "},"Ά":{"ha":1072,"x_min":29,"x_max":996,"o":"m 535 1035 l 265 781 l 167 781 l 357 1035 l 535 1035 m 996 0 l 776 0 l 753 208 l 360 208 l 247 0 l 29 0 l 607 1013 l 846 1013 l 996 0 m 733 376 l 683 810 l 450 376 l 733 376 z "},"Έ":{"ha":1235,"x_min":167,"x_max":1363,"o":"m 1172 0 l 411 0 l 628 1013 l 1363 1013 l 1325 836 l 796 836 l 750 621 l 1235 621 l 1197 446 l 713 446 l 657 186 l 1213 186 l 1172 0 m 535 1035 l 265 781 l 167 781 l 357 1035 l 535 1035 z "},"Ή":{"ha":1361,"x_min":167,"x_max":1465,"o":"m 1249 0 l 1039 0 l 1135 450 l 717 450 l 621 0 l 411 0 l 628 1013 l 838 1013 l 757 635 l 1175 635 l 1256 1013 l 1465 1013 l 1249 0 m 535 1035 l 265 781 l 167 781 l 357 1035 l 535 1035 z "},"Ί":{"ha":732,"x_min":167,"x_max":836,"o":"m 535 1035 l 265 781 l 167 781 l 357 1035 l 535 1035 m 619 0 l 411 0 l 628 1013 l 836 1013 l 619 0 z "},"Ό":{"ha":1271,"x_min":167,"x_max":1297,"o":"m 671 -29 q 374 83 481 -29 q 272 369 272 190 q 288 506 272 432 q 500 883 336 733 q 899 1040 672 1040 q 1196 926 1089 1040 q 1297 640 1297 819 q 1293 575 1297 611 q 1282 506 1289 539 q 1068 128 1232 278 q 671 -29 896 -29 m 710 154 q 947 267 843 154 q 1069 507 1040 368 q 1078 554 1075 531 q 1081 604 1081 578 q 1029 782 1081 715 q 860 857 971 857 q 622 747 725 857 q 500 507 529 649 q 489 408 489 454 q 540 231 489 297 q 710 154 599 154 m 535 1035 l 265 781 l 167 781 l 357 1035 l 535 1035 z "},"Ύ":{"ha":1289,"x_min":167,"x_max":1428,"o":"m 1428 1013 l 988 376 l 907 0 l 697 0 l 778 376 l 592 1013 l 800 1013 l 926 576 l 1218 1013 l 1428 1013 m 535 1035 l 265 781 l 167 781 l 357 1035 l 535 1035 z "},"Ώ":{"ha":1289,"x_min":179,"x_max":1294,"o":"m 1190 0 l 771 0 l 814 200 q 977 370 907 265 q 1069 581 1047 475 q 1078 660 1078 622 q 1025 803 1078 751 q 869 856 972 856 q 656 771 744 856 q 544 564 572 692 q 535 467 535 519 q 562 317 535 385 q 643 200 589 249 l 600 0 l 181 0 l 218 176 l 421 176 q 322 460 322 294 q 335 569 322 513 q 540 908 378 775 q 908 1040 701 1040 q 1189 946 1083 1040 q 1294 690 1294 851 q 1282 579 1294 638 q 1191 363 1258 467 q 1025 176 1124 258 l 1228 176 l 1190 0 m 547 1092 l 278 838 l 179 838 l 369 1092 l 547 1092 z "},"ΐ":{"ha":364,"x_min":0,"x_max":567,"o":"m 538 810 l 408 810 l 438 951 l 567 951 l 538 810 m 529 1064 l 260 810 l 161 810 l 351 1064 l 529 1064 m 140 810 l 11 810 l 40 951 l 169 951 l 140 810 m 200 0 l 0 0 l 160 749 l 360 749 l 200 0 z "},"Σ":{"ha":849,"x_min":0,"x_max":957,"o":"m 772 0 l 0 0 l 31 140 l 481 526 l 203 863 l 235 1013 l 957 1013 l 919 836 l 494 836 l 732 524 l 336 175 l 810 175 l 772 0 z "},"Τ":{"ha":878,"x_min":178,"x_max":1025,"o":"m 986 831 l 686 831 l 508 0 l 299 0 l 476 831 l 178 831 l 217 1013 l 1025 1013 l 986 831 z "},"Υ":{"ha":914,"x_min":217,"x_max":1053,"o":"m 1053 1013 l 613 376 l 532 0 l 322 0 l 403 376 l 217 1013 l 425 1013 l 551 576 l 843 1013 l 1053 1013 z "},"Φ":{"ha":1032,"x_min":99,"x_max":1067,"o":"m 565 0 l 385 0 l 411 121 q 186 206 274 121 q 99 424 99 290 q 101 462 99 440 q 108 508 104 483 q 278 775 143 669 q 575 892 406 875 l 601 1013 l 782 1013 l 756 892 q 981 798 896 878 q 1067 589 1067 718 q 1065 557 1067 574 q 1057 507 1064 540 q 889 231 1021 340 q 592 121 757 121 l 565 0 m 626 285 q 779 354 711 285 q 861 508 842 418 q 868 564 868 540 q 830 677 868 632 q 721 729 792 722 l 626 285 m 446 285 l 540 729 q 386 661 450 718 q 303 517 322 604 q 297 463 297 493 q 337 337 297 389 q 446 285 376 285 z "},"Χ":{"ha":978,"x_min":0,"x_max":1111,"o":"m 894 0 l 654 0 l 521 351 l 239 0 l 0 0 l 426 517 l 217 1013 l 456 1013 l 588 660 l 869 1013 l 1111 1013 l 689 519 l 894 0 z "},"Ψ":{"ha":1085,"x_min":118,"x_max":1211,"o":"m 1143 699 q 997 340 1088 436 q 633 200 892 228 l 590 0 l 404 0 l 447 200 q 192 283 265 221 q 118 471 118 344 q 149 699 118 557 l 217 1013 l 404 1013 l 336 694 q 317 600 318 608 q 308 518 308 554 q 347 417 308 451 q 486 383 386 383 l 621 1013 l 807 1013 l 672 383 q 883 472 822 383 q 956 694 919 525 l 1024 1013 l 1211 1013 l 1143 699 z "},"Ω":{"ha":1108,"x_min":0,"x_max":1114,"o":"m 1010 0 l 590 0 l 633 200 q 797 369 728 265 q 889 581 867 472 q 897 660 897 622 q 844 803 897 751 q 689 856 792 856 q 475 771 564 856 q 364 564 392 692 q 354 467 354 519 q 381 317 354 385 q 463 200 408 249 l 419 0 l 0 0 l 38 176 l 240 176 q 142 460 142 294 q 154 569 142 513 q 359 908 197 775 q 728 1040 521 1040 q 1008 946 903 1040 q 1114 690 1114 851 q 1101 579 1114 638 q 1010 363 1078 467 q 844 176 943 258 l 1047 176 l 1010 0 z "},"Ϊ":{"ha":503,"x_min":42,"x_max":601,"o":"m 565 1046 l 410 1046 l 446 1215 l 601 1215 l 565 1046 m 325 1046 l 168 1046 l 204 1215 l 361 1215 l 325 1046 m 250 0 l 42 0 l 258 1013 l 467 1013 l 250 0 z "},"Ϋ":{"ha":914,"x_min":217,"x_max":1053,"o":"m 833 1046 l 678 1046 l 714 1215 l 869 1215 l 833 1046 m 593 1046 l 436 1046 l 472 1215 l 629 1215 l 593 1046 m 1053 1013 l 613 376 l 532 0 l 322 0 l 403 376 l 217 1013 l 425 1013 l 551 576 l 843 1013 l 1053 1013 z "},"ά":{"ha":835,"x_min":65,"x_max":882,"o":"m 722 0 l 531 0 l 553 101 q 435 8 499 40 q 299 -25 371 -25 q 118 60 179 -25 q 65 257 65 133 q 78 372 65 315 q 210 643 113 529 q 474 775 324 775 q 593 744 540 775 q 668 657 646 713 l 688 750 l 882 750 l 722 0 m 490 601 q 347 528 408 601 q 276 376 296 465 q 268 304 268 340 q 294 194 268 236 q 389 144 326 144 q 535 218 472 144 q 607 371 588 281 q 613 417 613 403 q 614 440 614 432 q 588 551 614 511 q 490 601 556 601 m 801 1039 l 554 824 l 456 824 l 624 1039 l 801 1039 z "},"έ":{"ha":742,"x_min":54,"x_max":801,"o":"m 708 260 q 574 47 679 124 q 335 -25 474 -25 q 127 28 200 -25 q 54 160 54 81 q 95 281 54 221 q 218 390 136 340 q 162 448 183 414 q 140 522 140 482 q 143 553 140 543 q 274 718 164 654 q 488 776 374 776 q 673 726 604 776 q 742 576 742 676 q 733 508 742 544 l 554 508 q 558 540 558 525 q 533 592 558 576 q 458 608 507 608 q 381 591 424 608 q 332 544 339 574 q 329 518 329 525 q 358 468 329 481 q 433 456 386 456 q 466 456 450 456 q 497 457 482 456 l 465 308 l 394 308 q 310 292 346 308 q 251 224 261 269 q 250 206 250 217 q 294 153 250 167 q 376 143 325 143 q 463 175 428 143 q 510 260 499 207 l 708 260 m 801 1039 l 554 824 l 456 824 l 624 1039 l 801 1039 z "},"ή":{"ha":779,"x_min":0,"x_max":782,"o":"m 610 -278 l 410 -278 l 553 390 q 559 426 554 396 q 564 483 564 456 q 546 568 564 536 q 478 606 524 606 q 364 554 418 606 q 296 442 310 503 l 201 0 l 0 0 l 160 749 l 361 749 l 343 665 q 461 744 396 714 q 589 774 526 774 q 735 713 683 774 q 782 563 782 656 q 774 485 782 525 l 610 -278 m 718 1039 l 471 824 l 372 824 l 540 1039 l 718 1039 z "},"ί":{"ha":389,"x_min":42,"x_max":593,"o":"m 242 0 l 42 0 l 201 749 l 401 749 l 242 0 m 593 1039 l 346 824 l 247 824 l 415 1039 l 593 1039 z "},"ΰ":{"ha":767,"x_min":60,"x_max":815,"o":"m 757 810 l 628 810 l 657 951 l 786 951 l 757 810 m 360 810 l 231 810 l 260 951 l 389 951 l 360 810 m 739 1039 l 492 824 l 393 824 l 561 1039 l 739 1039 m 744 417 q 683 204 714 276 q 558 40 636 96 q 321 -25 467 -25 q 114 44 179 -25 q 60 214 60 103 q 65 288 60 249 q 79 369 69 326 l 160 749 l 360 749 l 281 369 q 269 310 274 342 q 264 251 264 278 q 285 172 264 201 q 357 142 306 142 q 493 247 442 142 q 546 422 521 303 l 615 749 l 815 749 l 744 417 z "},"α":{"ha":835,"x_min":65,"x_max":882,"o":"m 722 0 l 531 0 l 553 101 q 435 8 499 40 q 299 -25 371 -25 q 118 60 179 -25 q 65 257 65 133 q 78 372 65 315 q 210 643 113 529 q 474 775 324 775 q 593 744 540 775 q 668 657 646 713 l 688 750 l 882 750 l 722 0 m 490 601 q 347 528 408 601 q 276 376 296 465 q 268 304 268 340 q 294 194 268 236 q 389 144 326 144 q 535 218 472 144 q 607 371 588 281 q 613 417 613 403 q 614 440 614 432 q 588 551 614 511 q 490 601 556 601 z "},"β":{"ha":789,"x_min":-60,"x_max":818,"o":"m 626 539 q 728 453 692 508 q 765 325 765 399 q 758 263 765 297 q 629 53 732 136 q 399 -29 526 -29 q 210 51 274 -29 l 139 -278 l -60 -278 l 135 628 q 272 911 174 813 q 561 1021 382 1021 q 739 969 667 1021 q 818 818 818 913 q 818 794 818 806 q 813 769 814 778 q 626 539 781 622 m 374 136 q 492 182 438 136 q 560 292 546 228 q 564 325 564 311 q 515 415 564 385 q 393 444 465 444 l 426 600 q 542 635 490 600 q 608 732 594 669 q 611 761 611 742 q 584 830 611 803 q 513 857 557 857 q 382 775 429 857 q 332 622 353 725 l 282 393 q 270 329 274 358 q 267 267 267 300 q 288 175 267 207 q 374 136 314 136 z "},"γ":{"ha":815,"x_min":160,"x_max":889,"o":"m 889 749 l 465 38 l 397 -278 l 197 -278 l 265 38 q 253 155 265 94 q 229 275 240 215 l 160 749 l 367 749 l 425 285 l 682 749 l 889 749 z "},"δ":{"ha":835,"x_min":67,"x_max":886,"o":"m 807 353 q 648 76 771 178 q 349 -25 525 -25 q 141 48 215 -25 q 67 243 67 121 q 68 286 67 271 q 76 333 69 301 q 214 582 108 479 q 471 690 326 690 q 251 864 369 788 l 283 1013 l 886 1013 l 853 856 l 532 856 q 728 683 663 765 q 817 440 817 571 q 815 399 817 414 q 807 353 814 383 m 538 551 q 365 498 438 551 q 271 344 293 444 q 265 293 265 322 q 297 185 265 229 q 388 140 328 140 q 528 204 468 140 q 600 344 582 261 q 607 407 607 379 q 591 492 607 456 q 538 551 575 529 z "},"ε":{"ha":742,"x_min":54,"x_max":742,"o":"m 708 260 q 574 47 679 124 q 335 -25 474 -25 q 127 28 200 -25 q 54 160 54 81 q 95 281 54 221 q 218 390 136 340 q 162 448 183 414 q 140 522 140 482 q 143 553 140 543 q 274 718 164 654 q 488 776 374 776 q 673 726 604 776 q 742 576 742 676 q 733 508 742 544 l 554 508 q 558 540 558 525 q 533 592 558 576 q 458 608 507 608 q 381 591 424 608 q 332 544 339 574 q 329 518 329 525 q 358 468 329 481 q 433 456 386 456 q 466 456 450 456 q 497 457 482 456 l 465 308 l 394 308 q 310 292 346 308 q 251 224 261 269 q 250 206 250 217 q 294 153 250 167 q 376 143 325 143 q 463 175 428 143 q 510 260 499 207 l 708 260 z "},"ζ":{"ha":701,"x_min":51,"x_max":810,"o":"m 615 -32 q 570 -158 601 -97 q 492 -278 539 -218 l 314 -278 q 388 -181 360 -226 q 429 -81 417 -135 q 432 -60 432 -64 q 410 -19 432 -31 q 353 -8 389 -8 q 314 -10 340 -8 q 278 -11 288 -11 q 110 46 168 -11 q 51 201 51 103 q 56 248 51 224 q 61 283 60 272 q 215 596 93 436 q 475 856 319 732 l 231 856 l 264 1013 l 810 1013 l 786 904 q 460 660 594 800 q 265 318 303 496 q 257 247 257 276 q 440 132 257 136 q 622 26 622 128 q 615 -32 622 6 z "},"η":{"ha":779,"x_min":0,"x_max":782,"o":"m 610 -278 l 410 -278 l 553 390 q 559 426 554 396 q 564 483 564 456 q 546 568 564 536 q 478 606 524 606 q 364 554 418 606 q 296 442 310 503 l 201 0 l 0 0 l 160 749 l 361 749 l 343 665 q 461 744 396 714 q 589 774 526 774 q 735 713 683 774 q 782 563 782 656 q 774 485 782 525 l 610 -278 z "},"θ":{"ha":817,"x_min":85,"x_max":836,"o":"m 575 1022 q 779 907 711 1022 q 836 656 836 810 q 818 486 836 569 q 665 149 776 290 q 349 -25 531 -25 q 143 79 211 -25 q 85 315 85 169 q 103 482 85 396 q 257 832 144 679 q 575 1022 396 1022 m 636 590 q 643 637 640 613 q 646 688 646 661 q 622 808 646 763 q 536 863 594 863 q 397 764 457 863 q 331 590 351 689 l 636 590 m 604 440 l 299 440 q 289 378 293 411 q 285 307 285 346 q 304 186 285 229 q 383 131 329 131 q 531 249 463 131 q 604 440 582 338 z "},"ι":{"ha":389,"x_min":42,"x_max":401,"o":"m 242 0 l 42 0 l 201 749 l 401 749 l 242 0 z "},"κ":{"ha":779,"x_min":0,"x_max":838,"o":"m 692 0 l 479 0 l 358 343 l 250 253 l 196 0 l 0 0 l 160 749 l 356 749 l 300 490 l 600 749 l 838 749 l 519 479 l 692 0 z "},"λ":{"ha":775,"x_min":0,"x_max":701,"o":"m 701 0 l 492 0 l 440 444 l 196 0 l 0 0 l 388 697 l 349 1013 l 551 1013 l 701 0 z "},"μ":{"ha":754,"x_min":-60,"x_max":807,"o":"m 647 0 l 478 0 l 492 68 q 413 10 454 31 q 328 -11 372 -11 q 262 3 293 -11 q 208 43 231 18 l 139 -278 l -60 -278 l 160 749 l 358 749 l 275 358 q 265 303 268 326 q 261 254 261 281 q 283 180 261 208 q 354 151 304 151 q 488 240 443 151 q 535 401 508 283 l 608 749 l 807 749 l 647 0 z "},"ν":{"ha":828,"x_min":160,"x_max":900,"o":"m 900 749 l 474 0 l 267 0 l 160 749 l 382 749 l 418 211 l 689 749 l 900 749 z "},"ξ":{"ha":715,"x_min":49,"x_max":814,"o":"m 638 -14 q 587 -158 622 -86 q 500 -299 551 -229 l 336 -299 q 401 -194 390 -212 q 450 -85 442 -125 q 453 -62 453 -68 q 429 -21 453 -32 q 367 -10 406 -10 q 331 -11 354 -10 q 300 -12 308 -12 q 120 46 192 -12 q 49 203 49 104 q 56 260 49 228 q 149 426 76 354 q 315 531 215 493 q 242 583 268 551 q 211 669 211 621 q 214 699 211 679 q 265 790 225 747 q 353 856 301 828 l 206 856 l 239 1013 l 814 1013 l 781 856 l 681 857 q 526 840 582 857 q 414 736 431 811 q 411 719 411 728 q 411 707 411 711 q 488 618 411 642 q 639 601 540 601 l 682 601 l 649 446 l 610 446 q 406 425 475 446 q 260 285 282 388 q 256 249 256 264 q 449 151 256 165 q 643 33 643 138 q 643 7 643 19 q 638 -14 639 -8 z "},"ο":{"ha":863,"x_min":68,"x_max":854,"o":"m 375 -25 q 149 58 231 -25 q 68 275 68 140 q 79 372 68 319 q 245 660 117 546 q 546 775 374 775 q 772 692 690 775 q 854 472 854 608 q 843 372 854 428 q 676 88 806 200 q 375 -25 546 -25 m 410 142 q 561 217 497 142 q 636 374 617 282 q 644 444 644 410 q 614 557 644 514 q 508 607 578 607 q 358 531 424 607 q 283 374 304 467 q 276 306 276 336 q 306 192 276 233 q 410 142 340 142 z "},"ρ":{"ha":810,"x_min":-60,"x_max":814,"o":"m 361 -17 q 272 1 311 -17 q 204 49 233 18 l 135 -278 l -60 -278 l 79 371 q 229 657 118 549 q 524 775 350 775 q 739 692 664 775 q 814 476 814 610 q 801 372 814 426 q 642 96 767 208 q 361 -17 517 -17 m 490 607 q 350 529 410 607 q 282 378 300 465 q 274 301 274 342 q 297 196 274 235 q 388 147 326 147 q 512 211 450 147 q 596 375 574 275 q 601 408 600 390 q 603 446 603 426 q 574 562 603 517 q 490 607 544 607 z "},"ς":{"ha":768,"x_min":68,"x_max":832,"o":"m 828 449 l 643 449 q 606 572 643 533 q 500 610 569 610 q 360 538 422 610 q 289 394 306 475 q 281 319 281 353 q 471 156 281 192 q 661 29 661 119 q 657 -15 661 10 q 610 -150 642 -83 q 536 -278 586 -200 l 364 -278 q 419 -186 406 -212 q 456 -89 446 -136 q 457 -71 457 -82 q 357 -1 457 -25 q 169 60 213 33 q 68 261 68 122 q 82 382 68 317 q 240 660 118 547 q 533 776 368 776 q 748 701 664 776 q 832 504 832 625 q 828 449 832 478 z "},"σ":{"ha":940,"x_min":68,"x_max":1011,"o":"m 978 594 l 839 594 q 853 481 853 543 q 840 369 853 426 q 676 83 801 192 q 374 -25 550 -25 q 149 57 229 -25 q 68 274 68 139 q 79 372 68 317 q 242 657 117 544 q 543 775 372 775 q 606 768 572 775 q 708 750 692 750 l 1011 750 l 978 594 m 410 142 q 561 217 497 142 q 636 374 617 282 q 644 444 644 410 q 614 558 644 515 q 510 608 579 608 q 358 531 425 608 q 282 374 303 465 q 275 306 275 336 q 304 192 275 233 q 410 142 339 142 z "},"τ":{"ha":699,"x_min":126,"x_max":778,"o":"m 744 593 l 535 593 l 408 0 l 210 0 l 336 593 l 126 593 l 160 749 l 778 749 l 744 593 z "},"υ":{"ha":767,"x_min":60,"x_max":815,"o":"m 744 417 q 683 204 714 276 q 558 40 636 96 q 321 -25 467 -25 q 114 44 179 -25 q 60 214 60 103 q 65 288 60 249 q 79 369 69 326 l 160 749 l 360 749 l 279 369 q 267 299 269 321 q 264 253 264 276 q 284 172 264 201 q 357 142 304 142 q 493 247 442 142 q 546 422 521 303 l 615 749 l 815 749 l 744 417 z "},"φ":{"ha":990,"x_min":68,"x_max":1013,"o":"m 482 -278 l 307 -278 l 363 -22 q 145 60 222 -22 q 68 275 68 143 q 79 376 68 321 q 207 628 110 519 q 451 769 311 743 l 413 582 q 328 496 363 553 q 282 379 294 439 q 275 313 275 342 q 304 201 275 246 q 397 146 333 156 l 532 776 l 681 776 q 923 695 833 776 q 1013 475 1013 614 q 1001 379 1013 432 q 835 94 965 210 q 538 -22 706 -22 l 482 -278 m 572 146 q 721 225 657 146 q 794 382 775 290 q 800 414 799 404 q 801 446 801 424 q 772 560 801 517 q 672 611 738 611 l 572 146 z "},"χ":{"ha":847,"x_min":-64,"x_max":899,"o":"m 696 -299 l 485 -299 l 393 67 l 151 -299 l -64 -299 l 311 233 l 174 749 l 390 749 l 465 400 l 688 749 l 899 749 l 551 239 l 696 -299 z "},"ψ":{"ha":979,"x_min":71,"x_max":1035,"o":"m 553 143 q 696 242 639 161 q 746 353 733 294 l 831 749 l 1035 749 l 961 403 q 836 135 926 240 q 521 -22 719 -1 l 465 -278 l 289 -278 l 344 -22 q 126 81 194 -6 q 71 269 71 151 q 86 403 71 335 l 160 749 l 364 749 l 279 353 q 275 306 275 336 q 296 208 275 249 q 383 143 322 157 l 550 922 l 722 922 l 553 143 z "},"ω":{"ha":1050,"x_min":63,"x_max":1031,"o":"m 635 324 q 624 276 632 308 q 617 215 617 243 q 631 161 617 181 q 682 142 646 142 q 759 189 726 142 q 819 365 792 236 q 829 417 828 400 q 831 472 831 435 q 813 613 831 542 q 769 749 796 685 l 974 749 q 1016 613 1001 681 q 1031 475 1031 546 q 1017 338 1031 406 q 894 96 989 206 q 663 -29 788 -29 q 552 0 601 -29 q 488 78 503 29 q 392 -1 451 28 q 271 -29 332 -29 q 111 57 167 -29 q 63 246 63 132 q 65 292 63 269 q 72 338 68 315 q 154 553 96 444 q 290 749 207 650 l 494 749 q 363 565 411 649 q 281 365 301 461 q 270 305 274 335 q 267 249 267 275 q 280 171 267 200 q 324 142 293 142 q 400 185 371 142 q 442 324 418 211 l 485 528 l 679 528 l 635 324 z "},"ϊ":{"ha":389,"x_min":42,"x_max":540,"o":"m 511 810 l 382 810 l 411 951 l 540 951 l 511 810 m 247 810 l 118 810 l 147 951 l 276 951 l 247 810 m 242 0 l 42 0 l 201 749 l 401 749 l 242 0 z "},"ϋ":{"ha":767,"x_min":60,"x_max":815,"o":"m 708 810 l 579 810 l 608 951 l 738 951 l 708 810 m 444 810 l 315 810 l 344 951 l 474 951 l 444 810 m 744 417 q 683 204 714 276 q 558 40 636 96 q 321 -25 467 -25 q 114 44 179 -25 q 60 214 60 103 q 65 288 60 249 q 79 369 69 326 l 160 749 l 360 749 l 279 369 q 267 299 269 321 q 264 253 264 276 q 284 172 264 201 q 357 142 304 142 q 493 247 442 142 q 546 422 521 303 l 615 749 l 815 749 l 744 417 z "},"ό":{"ha":863,"x_min":68,"x_max":854,"o":"m 375 -25 q 149 58 231 -25 q 68 275 68 140 q 79 372 68 319 q 245 660 117 546 q 546 775 374 775 q 772 692 690 775 q 854 472 854 608 q 843 372 854 428 q 676 88 806 200 q 375 -25 546 -25 m 410 142 q 561 217 497 142 q 636 374 617 282 q 644 444 644 410 q 614 557 644 514 q 508 607 578 607 q 358 531 424 607 q 283 374 304 467 q 276 306 276 336 q 306 192 276 233 q 410 142 340 142 m 815 1039 l 568 824 l 469 824 l 638 1039 l 815 1039 z "},"ύ":{"ha":767,"x_min":60,"x_max":815,"o":"m 744 417 q 683 204 714 276 q 558 40 636 96 q 321 -25 467 -25 q 114 44 179 -25 q 60 214 60 103 q 65 288 60 249 q 79 369 69 326 l 160 749 l 360 749 l 281 369 q 269 310 274 342 q 264 251 264 278 q 285 172 264 201 q 357 142 306 142 q 493 247 442 142 q 546 422 521 303 l 615 749 l 815 749 l 744 417 m 801 1039 l 554 824 l 456 824 l 624 1039 l 801 1039 z "},"ώ":{"ha":1050,"x_min":63,"x_max":1031,"o":"m 679 528 l 485 528 l 442 324 q 400 185 418 211 q 324 142 371 142 q 280 171 293 142 q 267 249 267 200 q 270 305 267 275 q 281 365 274 335 q 363 565 301 461 q 494 749 411 649 l 290 749 q 154 553 207 650 q 72 338 96 444 q 65 292 68 315 q 63 246 63 269 q 111 57 63 132 q 271 -29 167 -29 q 392 -1 332 -29 q 488 78 451 28 q 552 0 503 29 q 663 -29 601 -29 q 894 96 788 -29 q 1017 338 989 206 q 1031 475 1031 406 q 1016 613 1031 546 q 974 749 1001 681 l 769 749 q 813 613 796 685 q 831 472 831 542 q 829 417 831 435 q 819 365 828 400 q 759 189 792 236 q 682 142 726 142 q 631 161 646 142 q 617 215 617 181 q 624 276 617 243 q 635 324 632 308 l 679 528 m 940 1039 l 693 824 l 594 824 l 763 1039 l 940 1039 z "}}}
